<?xml version="1.0" encoding="UTF-8"?>
<svg width="24px" height="24px" viewBox="0 0 24 24" version="1.1" xmlns="http://www.w3.org/2000/svg" xmlns:xlink="http://www.w3.org/1999/xlink">
    <!-- Generator: Sketch 64 (93537) - https://sketch.com -->
    <title>icon-location</title>
    <desc>Created with Sketch.</desc>
    <g id="icon-location" stroke="none" stroke-width="1" fill="none" fill-rule="evenodd">
        <path d="M13.6363529,20.5372087 C18.3621336,12.9598838 19.249966,12.1385871 19.249966,9.50002265 C19.249966,5.56285056 16.05806,2.37503964 12.124983,2.37503964 C8.18781093,2.37503964 5,5.56694563 5,9.50002265 C5,12.1391307 5.89029672,12.9638339 10.6135769,20.5372087 C11.3106444,21.6549085 12.9400827,21.6535677 13.6363529,20.5372087 Z M12.124983,19.5937486 C7.39637566,12.011785 6.78124575,11.5331694 6.78124575,9.50002265 C6.78124575,6.54874718 9.17370755,4.15628539 12.124983,4.15628539 C15.0762585,4.15628539 17.4687203,6.54874718 17.4687203,9.50002265 C17.4687203,11.5244357 16.9059203,11.9278905 12.124983,19.5937486 Z M12.124983,12.4687656 C13.7645684,12.4687656 15.0937259,11.1396081 15.0937259,9.50002265 C15.0937259,7.86043725 13.7645684,6.53127973 12.124983,6.53127973 C10.4853976,6.53127973 9.15624009,7.86043725 9.15624009,9.50002265 C9.15624009,11.1396081 10.4853976,12.4687656 12.124983,12.4687656 Z" id="ï…" fill="#000000" fill-rule="nonzero"></path>
    </g>
</svg>
