<?xml version="1.0" encoding="UTF-8"?>
<svg width="24px" height="24px" viewBox="0 0 24 24" version="1.1" xmlns="http://www.w3.org/2000/svg" xmlns:xlink="http://www.w3.org/1999/xlink">
    <!-- Generator: Sketch 64 (93537) - https://sketch.com -->
    <title>icon-altitude</title>
    <desc>Created with Sketch.</desc>
    <g id="icon-altitude" stroke="none" stroke-width="1" fill="none" fill-rule="evenodd">
        <path d="M18.8046546,5.49221971 C19.0495614,5.49221971 19.249966,5.29181506 19.249966,5.04690827 L19.249966,4.00784824 C19.249966,3.76294145 19.0495614,3.56253681 18.8046546,3.56253681 L5.44531144,3.56253681 C5.20040464,3.56253681 5,3.76294145 5,4.00784824 L5,5.04690827 C5,5.29181506 5.20040464,5.49221971 5.44531144,5.49221971 L18.8046546,5.49221971 Z M12.644513,20.1874972 C12.8894198,20.1874972 13.0898245,19.9870925 13.0898245,19.7421857 L13.0898245,10.5094025 L16.5706683,14.1126997 C16.7413928,14.2945497 17.0271053,14.2982461 17.2052588,14.1201288 L17.9325864,13.3928013 C18.1070072,13.2183804 18.1070072,12.9363281 17.9325864,12.7619434 L12.4404119,7.25491082 C12.2659911,7.08048992 11.983975,7.08048992 11.8095541,7.25491082 L6.31737967,12.7619434 C6.14295878,12.9363281 6.14295878,13.2183804 6.3210761,13.3928013 L7.04843986,14.1201288 C7.22286076,14.2945497 7.50857327,14.290817 7.68299417,14.1126997 L11.1601416,10.5094025 L11.1601416,19.7421857 C11.1601416,19.9870925 11.3605462,20.1874972 11.605453,20.1874972 L12.644513,20.1874972 Z" id="ï" fill="#000000" fill-rule="nonzero"></path>
    </g>
</svg>
