<?xml version="1.0" encoding="UTF-8"?>
<svg width="18px" height="18px" viewBox="0 0 18 18" version="1.1" xmlns="http://www.w3.org/2000/svg" xmlns:xlink="http://www.w3.org/1999/xlink">
    <!-- Generator: Sketch 64 (93537) - https://sketch.com -->
    <title>Artboard</title>
    <desc>Created with Sketch.</desc>
    <defs>
        <radialGradient cx="50%" cy="50%" fx="50%" fy="50%" r="93.8947934%" gradientTransform="translate(0.500000,0.500000),scale(0.447453,1.000000),rotate(32.175263),translate(-0.500000,-0.500000)" id="radialGradient-1">
            <stop stop-color="#FFFFFF" stop-opacity="0" offset="0%"></stop>
            <stop stop-color="#FFFFFF" stop-opacity="0.154419799" offset="73.1075802%"></stop>
            <stop stop-color="#FFFFFF" stop-opacity="0.377786276" offset="100%"></stop>
        </radialGradient>
        <radialGradient cx="50%" cy="50%" fx="50%" fy="50%" r="50%" id="radialGradient-2">
            <stop stop-color="#FFFFFF" stop-opacity="0" offset="0%"></stop>
            <stop stop-color="#FFFFFF" stop-opacity="0.154419799" offset="73.1075802%"></stop>
            <stop stop-color="#FFFFFF" stop-opacity="0.377786276" offset="100%"></stop>
        </radialGradient>
    </defs>
    <g id="Artboard" stroke="none" stroke-width="1" fill="none" fill-rule="evenodd">
        <polygon id="Path-2" fill="url(#radialGradient-1)" points="3.375 15.75 15.2611084 15.75 15.2611084 12.181366 12.4324036 10.1766357 5.625 10.1766357 2.80535889 12.7911072"></polygon>
        <circle id="Oval" fill="url(#radialGradient-2)" cx="9" cy="4.5" r="3.375"></circle>
        <path d="M9.14060857,8.71876408 C11.3154629,8.71876408 13.0780992,6.95612781 13.0780992,4.78127347 C13.0780992,2.60641913 11.3154629,0.843782857 9.14060857,0.843782857 C6.96575423,0.843782857 5.20311796,2.60641913 5.20311796,4.78127347 C5.20311796,6.95612781 6.96575423,8.71876408 9.14060857,8.71876408 Z M9.14060857,7.73439143 C7.51330551,7.73439143 6.18749061,6.40857653 6.18749061,4.78127347 C6.18749061,3.15397041 7.51330551,1.82815551 9.14060857,1.82815551 C10.7679116,1.82815551 12.0937265,3.15397041 12.0937265,4.78127347 C12.0937265,6.40857653 10.7679116,7.73439143 9.14060857,7.73439143 Z M14.5546582,16.5937453 C15.3698418,16.5937453 16.0312171,15.9323699 16.0312171,15.1171863 L16.0312171,13.8375139 C16.0312171,11.5549938 14.1793601,9.70313673 11.89684,9.70313673 C11.0140048,9.70313673 10.5894701,10.1953231 9.14060857,10.1953231 C7.69174709,10.1953231 7.27030654,9.70313673 6.38437716,9.70313673 C4.10185706,9.70313673 2.25,11.5549938 2.25,13.8375139 L2.25,15.1171863 C2.25,15.9323699 2.91137538,16.5937453 3.72655898,16.5937453 L14.5546582,16.5937453 Z M14.5546582,15.6093727 L3.72655898,15.6093727 C3.45586251,15.6093727 3.23437265,15.3878828 3.23437265,15.1171863 L3.23437265,13.8375139 C3.23437265,12.0994809 4.64634419,10.6875094 6.38437716,10.6875094 C6.98729339,10.6875094 7.58714548,11.1796957 9.14060857,11.1796957 C10.6910075,11.1796957 11.2939238,10.6875094 11.89684,10.6875094 C13.6348729,10.6875094 15.0468445,12.0994809 15.0468445,13.8375139 L15.0468445,15.1171863 C15.0468445,15.3878828 14.8253546,15.6093727 14.5546582,15.6093727 Z" id="" fill="#DDDDDD" fill-rule="nonzero"></path>
    </g>
</svg>
