<?xml version="1.0" encoding="UTF-8"?>
<svg width="24px" height="24px" viewBox="0 0 24 24" version="1.1" xmlns="http://www.w3.org/2000/svg" xmlns:xlink="http://www.w3.org/1999/xlink">
    <!-- Generator: Sketch 64 (93537) - https://sketch.com -->
    <title>icon-telescope</title>
    <desc>Created with Sketch.</desc>
    <g id="icon-telescope" stroke="none" stroke-width="1" fill="none" fill-rule="evenodd">
        <g id="6368ed0359d30620a229bef512993aff" transform="translate(1.000000, 2.000000)" fill="#000000" fill-rule="nonzero">
            <g id="Group" transform="translate(11.000000, 9.500000) scale(-1, 1) rotate(-180.000000) translate(-11.000000, -9.500000) translate(0.000000, -0.000000)">
                <path d="M18.0473625,18.6730243 C17.518743,18.4887726 17.0199776,18.2920626 16.9382716,18.2293339 C16.8608305,18.1707581 16.7535354,18.0453008 16.701908,17.9489129 C16.5129068,17.5930864 16.5214366,17.5637985 17.565881,14.696641 C18.2320988,12.8759807 18.5589226,12.0347176 18.6406285,11.9341769 C18.8040404,11.7374669 19.0832772,11.5993328 19.3283951,11.5993328 C19.4659933,11.5993328 19.8141414,11.6998735 20.4718294,11.9300242 C21.4861953,12.2816979 21.6368126,12.3444266 21.7485971,12.465731 C21.8689113,12.5914069 21.9979798,12.9052686 21.9979798,13.0768434 C21.9979798,13.2274359 20.1968575,18.2669274 20.0249158,18.5893132 C19.9818182,18.6688715 19.8659933,18.790176 19.7670034,18.8614287 C19.6166105,18.9617508 19.5391695,18.9871046 19.298541,18.9954101 C19.0316498,19.0078684 18.9371493,18.9827332 18.0473625,18.6730243 Z" id="Path"></path>
                <path d="M12.7171717,15.8854251 C10.8558923,15.240872 9.72547699,14.8264696 9.63501684,14.7595882 C9.42446689,14.6004716 9.30392817,14.3493385 9.30841751,14.0689175 C9.30841751,13.8805131 9.43299663,13.4997699 9.96184063,12.0598528 C10.3400673,11.0301852 10.6581369,10.2223628 10.7182941,10.1428046 C10.8729517,9.94609456 11.1396184,9.82479006 11.4231201,9.82479006 C11.6251403,9.82479006 12.0893378,9.97122973 14.6040404,10.8417807 C16.2246914,11.4026228 17.5613917,11.8756011 17.5786756,11.8882779 C17.6002245,11.9051076 17.2047138,13.0436213 16.7016835,14.4164385 C16.0056117,16.3291154 15.7777778,16.9150926 15.7261504,16.9107455 C15.6875421,16.9107455 14.3335578,16.4462671 12.7171717,15.8854251 Z" id="Path"></path>
                <path d="M6.00718294,12.6206948 C4.71762065,12.1770045 3.35488215,11.7040262 2.97665544,11.5700449 C2.24601571,11.314759 2.01369248,11.1724721 1.89337823,10.9003566 C1.80740741,10.6994938 1.82469136,10.3436673 1.92772166,10.0757046 C1.97934905,9.94587599 2.01369248,9.83287703 2.00516274,9.82041873 C1.99236813,9.81211319 1.60112233,9.66960773 1.12817059,9.51070977 C0.655443322,9.34744047 0.221324355,9.18001841 0.161167228,9.13411941 C-0.109539843,8.94156218 -0.0235690236,8.49371908 0.303030303,8.38902565 C0.457687991,8.33875532 0.509315376,8.35143219 1.39057239,8.65261705 C1.89786756,8.82834465 2.31896745,8.96647878 2.32772166,8.95817324 C2.3362514,8.94986771 2.39214366,8.80342805 2.45679012,8.64015875 C2.54702581,8.41416082 2.62020202,8.29700909 2.74478114,8.19231566 C2.94253648,8.02904636 3.23479237,7.93702979 3.44983165,7.97047049 C3.57441077,7.99145289 9.65252525,10.0715518 9.69140852,10.1052111 C9.6956229,10.1135166 9.4291807,10.8586104 9.1023569,11.7626021 C8.77126824,12.6668124 8.50056117,13.4158403 8.50056117,13.4243644 C8.5003367,13.478569 8.13063973,13.3572645 6.00718294,12.6206948 Z" id="Path"></path>
                <path d="M9.89315376,8.87861498 C9.66531987,8.79075118 9.55353535,8.48934775 9.66531987,8.28017945 C9.77283951,8.07516392 9.86734007,8.04150466 10.3616162,8.04150466 C10.6152637,8.04150466 10.8215488,8.03319913 10.8215488,8.02052226 C10.8215488,8.00784539 9.8285073,6.32531922 8.62065095,4.28281376 C6.18765432,0.181191763 6.27789001,0.369596227 6.55735129,0.126768664 C6.74657688,-0.0406533993 6.98720539,-0.0406533993 7.1634119,0.118463131 C7.23209877,0.18534453 8.11762065,1.63772 9.12794613,3.34975267 L10.9719416,6.46367192 L10.9934905,3.37051651 C11.0062851,1.6711607 11.0320988,0.243920396 11.0493827,0.206108363 C11.1095398,0.0889566318 11.2814815,0.00524559991 11.4662177,0.00524559991 C11.6080808,0.00524559991 11.6725028,0.0303807661 11.7714927,0.126550098 L11.8960718,0.247854596 L11.8960718,3.35762107 C11.8960718,5.28297481 11.9133558,6.45077649 11.9346801,6.42979409 C11.956229,6.40465892 12.8029181,4.99424825 13.8087542,3.29052111 C14.8188552,1.58701254 15.6915825,0.151466697 15.7474747,0.0970435983 C15.8765432,-0.0118025998 16.1472503,-0.0286322328 16.2976431,0.0677556655 C16.4309764,0.151466697 16.5126824,0.348176694 16.4823793,0.498769125 C16.4695847,0.561497757 15.485073,2.25254803 14.2987654,4.25330726 C13.1124579,6.25821926 12.132211,7.92828713 12.1194164,7.97003336 C12.1021324,8.03276199 12.1452301,8.04128609 12.5620651,8.04128609 C13.0092031,8.04128609 13.0219978,8.04543886 13.1465769,8.16259059 C13.3227834,8.33416542 13.3227834,8.57284022 13.1465769,8.76124468 L13.0219978,8.89937881 L11.5003367,8.90768434 C10.6668911,8.91227424 9.94029181,8.89959738 9.89315376,8.87861498 Z" id="Path"></path>
            </g>
        </g>
    </g>
</svg>
