<?xml version="1.0" encoding="UTF-8"?>
<svg width="24px" height="24px" viewBox="0 0 24 24" version="1.1" xmlns="http://www.w3.org/2000/svg" xmlns:xlink="http://www.w3.org/1999/xlink">
    <!-- Generator: Sketch 64 (93537) - https://sketch.com -->
    <title>icon-calendar</title>
    <desc>Created with Sketch.</desc>
    <g id="icon-calendar" stroke="none" stroke-width="1" fill="none" fill-rule="evenodd">
        <path d="M18.8437146,21.3749943 C19.8271107,21.3749943 20.6249604,20.5771447 20.6249604,19.5937486 L20.6249604,6.53127973 C20.6249604,5.54788363 19.8271107,4.75003397 18.8437146,4.75003397 L17.0624689,4.75003397 L17.0624689,2.82035108 C17.0624689,2.57544428 16.8620642,2.37503964 16.6171574,2.37503964 L15.132786,2.37503964 C14.8878792,2.37503964 14.6874745,2.57544428 14.6874745,2.82035108 L14.6874745,4.75003397 L9.93748584,4.75003397 L9.93748584,2.82035108 C9.93748584,2.57544428 9.7370812,2.37503964 9.49217441,2.37503964 L8.00780294,2.37503964 C7.76289615,2.37503964 7.56249151,2.57544428 7.56249151,2.82035108 L7.56249151,4.75003397 L5.78124575,4.75003397 C4.79784966,4.75003397 4,5.54788363 4,6.53127973 L4,19.5937486 C4,20.5771447 4.79784966,21.3749943 5.78124575,21.3749943 L18.8437146,21.3749943 Z M18.6210589,19.5937486 L6.00390147,19.5937486 C5.88144807,19.5937486 5.78124575,19.4935463 5.78124575,19.3710929 L5.78124575,8.31252548 L18.8437146,8.31252548 L18.8437146,19.3710929 C18.8437146,19.4935463 18.7435123,19.5937486 18.6210589,19.5937486 Z M9.49217441,13.0625142 C9.7370812,13.0625142 9.93748584,12.8621095 9.93748584,12.6172027 L9.93748584,11.1328313 C9.93748584,10.8879245 9.7370812,10.6875198 9.49217441,10.6875198 L8.00780294,10.6875198 C7.76289615,10.6875198 7.56249151,10.8879245 7.56249151,11.1328313 L7.56249151,12.6172027 C7.56249151,12.8621095 7.76289615,13.0625142 8.00780294,13.0625142 L9.49217441,13.0625142 Z M13.0546659,13.0625142 C13.2995727,13.0625142 13.4999774,12.8621095 13.4999774,12.6172027 L13.4999774,11.1328313 C13.4999774,10.8879245 13.2995727,10.6875198 13.0546659,10.6875198 L11.5702945,10.6875198 C11.3253877,10.6875198 11.124983,10.8879245 11.124983,11.1328313 L11.124983,12.6172027 C11.124983,12.8621095 11.3253877,13.0625142 11.5702945,13.0625142 L13.0546659,13.0625142 Z M16.6171574,13.0625142 C16.8620642,13.0625142 17.0624689,12.8621095 17.0624689,12.6172027 L17.0624689,11.1328313 C17.0624689,10.8879245 16.8620642,10.6875198 16.6171574,10.6875198 L15.132786,10.6875198 C14.8878792,10.6875198 14.6874745,10.8879245 14.6874745,11.1328313 L14.6874745,12.6172027 C14.6874745,12.8621095 14.8878792,13.0625142 15.132786,13.0625142 L16.6171574,13.0625142 Z M13.0546659,16.6250057 C13.2995727,16.6250057 13.4999774,16.424601 13.4999774,16.1796942 L13.4999774,14.6953228 C13.4999774,14.450416 13.2995727,14.2500113 13.0546659,14.2500113 L11.5702945,14.2500113 C11.3253877,14.2500113 11.124983,14.450416 11.124983,14.6953228 L11.124983,16.1796942 C11.124983,16.424601 11.3253877,16.6250057 11.5702945,16.6250057 L13.0546659,16.6250057 Z M9.49217441,16.6250057 C9.7370812,16.6250057 9.93748584,16.424601 9.93748584,16.1796942 L9.93748584,14.6953228 C9.93748584,14.450416 9.7370812,14.2500113 9.49217441,14.2500113 L8.00780294,14.2500113 C7.76289615,14.2500113 7.56249151,14.450416 7.56249151,14.6953228 L7.56249151,16.1796942 C7.56249151,16.424601 7.76289615,16.6250057 8.00780294,16.6250057 L9.49217441,16.6250057 Z M16.6171574,16.6250057 C16.8620642,16.6250057 17.0624689,16.424601 17.0624689,16.1796942 L17.0624689,14.6953228 C17.0624689,14.450416 16.8620642,14.2500113 16.6171574,14.2500113 L15.132786,14.2500113 C14.8878792,14.2500113 14.6874745,14.450416 14.6874745,14.6953228 L14.6874745,16.1796942 C14.6874745,16.424601 14.8878792,16.6250057 15.132786,16.6250057 L16.6171574,16.6250057 Z" id="ï³" fill="#000000" fill-rule="nonzero"></path>
    </g>
</svg>
