<?xml version="1.0" encoding="UTF-8"?>
<svg width="21px" height="20px" viewBox="0 0 21 20" version="1.1" xmlns="http://www.w3.org/2000/svg" xmlns:xlink="http://www.w3.org/1999/xlink">
    <!-- Generator: Sketch 64 (93537) - https://sketch.com -->
    <title>Artboard</title>
    <desc>Created with Sketch.</desc>
    <g id="Artboard" stroke="none" stroke-width="1" fill="none" fill-rule="evenodd">
        <path d="M15.9687459,18.3749951 C17.0963079,18.3749951 18.0104077,17.4608954 18.0104077,16.3333333 C18.0104077,15.7547856 17.7693747,15.2328746 17.3827312,14.8613717 L17.4157537,14.7095929 C17.5195565,14.2323557 17.1559976,13.7812561 16.6676075,13.7812561 L7.66679994,13.7812561 L7.36726109,12.2500097 L17.333291,12.2500097 C17.6934541,12.2500097 18.0049247,11.9989766 18.081406,11.6470067 L19.5238655,5.01160587 C19.6276059,4.53439982 19.2640471,4.08336254 18.7757193,4.08336254 L5.76934671,4.08336254 L5.49096094,2.66031156 C5.42064797,2.30098955 5.10571939,2.04170074 4.73957481,2.04170074 L1.54947825,2.04170074 C1.33807205,2.04170074 1.16666667,2.21310612 1.16666667,2.42451233 L1.16666667,3.1901355 C1.16666667,3.40154171 1.33807205,3.57294709 1.54947825,3.57294709 L4.10921921,3.57294709 L6.32932704,14.9201579 C5.97720144,15.287019 5.76040571,15.7846928 5.76040571,16.3333333 C5.76040571,17.4608954 6.67450545,18.3749951 7.80206751,18.3749951 C8.92962957,18.3749951 9.84372931,17.4608954 9.84372931,16.3333333 L9.84372931,16.3310903 C9.84372931,16.0296511 9.72107882,15.5733178 9.56992308,15.3125024 L14.2008903,15.3125024 C14.0497346,15.5733178 13.9270841,16.0296511 13.9270841,16.3310903 L13.9270841,16.3333333 C13.9270841,17.4608954 14.8411838,18.3749951 15.9687459,18.3749951 Z M16.7164247,10.7187634 L7.06772224,10.7187634 L6.06888556,5.61460889 L17.8259179,5.61460889 L16.7164247,10.7187634 Z M7.80206751,17.0989565 C7.37987817,17.0989565 7.03644434,16.7555227 7.03644434,16.3333333 C7.03644434,15.911144 7.37987817,15.5677102 7.80206751,15.5677102 C8.22425685,15.5677102 8.56769069,15.911144 8.56769069,16.3333333 C8.56769069,16.7555227 8.22425685,17.0989565 7.80206751,17.0989565 Z M15.9687147,17.0989565 C15.5465254,17.0989565 15.2030915,16.7555227 15.2030915,16.3333333 C15.2030915,15.911144 15.5465254,15.5677102 15.9687147,15.5677102 C16.3909041,15.5677102 16.7343379,15.911144 16.7343379,16.3333333 C16.7343379,16.7555227 16.3909041,17.0989565 15.9687147,17.0989565 Z" id="ïº" fill="#FFFFFF" fill-rule="nonzero"></path>
    </g>
</svg>
