<?xml version="1.0" encoding="UTF-8"?>
<svg width="18px" height="18px" viewBox="0 0 18 18" version="1.1" xmlns="http://www.w3.org/2000/svg" xmlns:xlink="http://www.w3.org/1999/xlink">
    <!-- Generator: Sketch 64 (93537) - https://sketch.com -->
    <title>Artboard</title>
    <desc>Created with Sketch.</desc>
    <defs>
        <radialGradient cx="50%" cy="50%" fx="50%" fy="50%" r="86.6932933%" gradientTransform="translate(0.500000,0.500000),scale(0.503427,1.000000),rotate(90.000000),translate(-0.500000,-0.500000)" id="radialGradient-1">
            <stop stop-color="#FFFFFF" stop-opacity="0" offset="0%"></stop>
            <stop stop-color="#FFFFFF" stop-opacity="0.154419799" offset="74.9683644%"></stop>
            <stop stop-color="#FFFFFF" stop-opacity="0.377786276" offset="100%"></stop>
        </radialGradient>
    </defs>
    <g id="Artboard" stroke="none" stroke-width="1" fill="none" fill-rule="evenodd">
        <polygon id="Path" fill="url(#radialGradient-1)" points="1.125 7.875 2.30010917 14.625 15.1880493 15.0757141 16.192749 7.49020386"></polygon>
        <path d="M14.4643119,15.6093727 C15.2012997,15.6093727 15.8254547,15.0659369 15.9268419,14.3359186 L16.8437132,7.73439143 L17.349568,7.73439143 C17.553424,7.73439143 17.7187078,7.56910767 17.7187078,7.36525168 L17.7187078,7.11915852 C17.7187078,6.91530254 17.553424,6.75001878 17.349568,6.75001878 L14.9847665,6.75001878 L10.7017481,1.9910961 C10.519972,1.78904256 10.2087507,1.77267039 10.0066671,1.95453661 C9.80458354,2.13637278 9.78824141,2.44756407 9.97010763,2.64961761 L13.6604837,6.75001878 L4.05822406,6.75001878 L7.74863017,2.64958757 C7.93049638,2.44756407 7.91412422,2.1363127 7.71207067,1.95450657 C7.50998709,1.77264035 7.19876576,1.78898248 7.01698967,1.99106606 L2.73394124,6.75001878 L0.369139745,6.75001878 C0.165283763,6.75001878 0,6.91530254 0,7.11915852 L0,7.36525168 C0,7.56910767 0.165283763,7.73439143 0.369139745,7.73439143 L0.874994576,7.73439143 L1.79186585,14.3359186 C1.8932531,15.0659369 2.51740809,15.6093727 3.25439583,15.6093727 L14.4643119,15.6093727 Z M14.4643119,14.625 L3.25439583,14.625 C3.01007507,14.625 2.80051136,14.442533 2.76689585,14.2005253 L1.86883004,7.73439143 L15.8499078,7.73439143 L14.9518119,14.2005253 C14.9181964,14.442533 14.7086327,14.625 14.4643119,14.625 Z M8.85935388,13.3945342 C9.13119189,13.3945342 9.3515402,13.1741859 9.3515402,12.9023479 L9.3515402,9.45704357 C9.3515402,9.18520555 9.13119189,8.96485724 8.85935388,8.96485724 C8.5875459,8.96485724 8.36716755,9.18520555 8.36716755,9.45704357 L8.36716755,12.9023479 C8.36716755,13.1741859 8.5875459,13.3945342 8.85935388,13.3945342 Z M12.3046582,13.3945342 C12.5764962,13.3945342 12.7968445,13.1741859 12.7968445,12.9023479 L12.7968445,9.45704357 C12.7968445,9.18520555 12.5764962,8.96485724 12.3046582,8.96485724 C12.0328201,8.96485724 11.8124718,9.18520555 11.8124718,9.45704357 L11.8124718,12.9023479 C11.8124718,13.1741859 12.0328201,13.3945342 12.3046582,13.3945342 Z M5.41404959,13.3945342 C5.68585757,13.3945342 5.90623592,13.1741859 5.90623592,12.9023479 L5.90623592,9.45704357 C5.90623592,9.18520555 5.68585757,8.96485724 5.41404959,8.96485724 C5.14224162,8.96485724 4.92186327,9.18520555 4.92186327,9.45704357 L4.92186327,12.9023479 C4.92186327,13.1741859 5.14224162,13.3945342 5.41404959,13.3945342 Z" id="" fill="#DDDDDD" fill-rule="nonzero"></path>
    </g>
</svg>
