<?xml version="1.0" encoding="UTF-8"?>
<svg width="141px" height="48px" viewBox="0 0 141 48" version="1.1" xmlns="http://www.w3.org/2000/svg" xmlns:xlink="http://www.w3.org/1999/xlink">
    <!-- Generator: Sketch 64 (93537) - https://sketch.com -->
    <title>Artboard</title>
    <desc>Created with Sketch.</desc>
    <g id="Artboard" stroke="none" stroke-width="1" fill="none" fill-rule="evenodd">
        <path d="M24.5,41 C34.1673387,41 42,33.1673387 42,23.5 C42,13.8326613 34.1673387,6 24.5,6 C14.8326613,6 7,13.8326613 7,23.5 C7,33.1673387 14.8326613,41 24.5,41 Z M24.5,37.6129032 C16.702621,37.6129032 10.3870968,31.297379 10.3870968,23.5 C10.3870968,15.702621 16.702621,9.38709677 24.5,9.38709677 C32.297379,9.38709677 38.6129032,15.702621 38.6129032,23.5 C38.6129032,31.297379 32.297379,37.6129032 24.5,37.6129032 Z M30.0463434,30.0625 L31.3730114,28.2348515 C31.6481717,27.8538444 31.5705783,27.3246106 31.1895023,27.0493814 L26.4758065,23.6199735 L26.4758065,13.6209677 C26.4758065,13.1552695 26.0947305,12.7741935 25.6290323,12.7741935 L23.3709677,12.7741935 C22.9052695,12.7741935 22.5241935,13.1552695 22.5241935,13.6209677 L22.5241935,25.2076751 C22.5241935,25.4758065 22.6511959,25.7298111 22.8699872,25.8921647 L28.8608733,30.2459402 C29.2419493,30.5211694 29.7711831,30.4364782 30.0463434,30.0625 Z" id="" fill="#FFFFFF" fill-rule="nonzero"></path>
        <path d="M123.222264,42 C125.676824,42 127.666705,39.9852448 127.666705,37.5 C127.666705,36.2248306 127.142006,35.0744934 126.300332,34.2556686 L126.372218,33.9211349 C126.598183,32.8692627 125.806761,31.875 124.743598,31.875 L105.149972,31.875 L104.497914,28.5 L126.192707,28.5 C126.976737,28.5 127.654769,27.946701 127.821259,27.170929 L130.961312,12.545929 C131.187142,11.4941254 130.39572,10.5 129.332692,10.5 L101.019455,10.5 L100.413444,7.36347198 C100.260382,6.57149506 99.5748221,6 98.7777714,6 L91.8333327,6 C91.373128,6 91,6.37779236 91,6.84375 L91,8.53125 C91,8.99720764 91.373128,9.375 91.8333327,9.375 L97.4055666,9.375 L102.238462,34.3852386 C101.471929,35.1938324 101,36.2907486 101,37.5 C101,39.9852448 102.989872,42 105.444433,42 C107.898993,42 109.888873,39.9852448 109.888873,37.5 L109.888873,37.4950562 C109.888873,36.830658 109.621879,35.8248596 109.292832,35.25 L119.373865,35.25 C119.044818,35.8248596 118.777823,36.830658 118.777823,37.4950562 L118.777823,37.5 C118.777823,39.9852448 120.767703,42 123.222264,42 Z M124.849867,25.125 L103.845855,25.125 L101.671514,13.875 L127.265094,13.875 L124.849867,25.125 Z M105.444433,39.1875 C104.52538,39.1875 103.777767,38.430542 103.777767,37.5 C103.777767,36.569458 104.52538,35.8125 105.444433,35.8125 C106.363486,35.8125 107.111098,36.569458 107.111098,37.5 C107.111098,38.430542 106.363486,39.1875 105.444433,39.1875 Z M123.222196,39.1875 C122.303143,39.1875 121.555531,38.430542 121.555531,37.5 C121.555531,36.569458 122.303143,35.8125 123.222196,35.8125 C124.141249,35.8125 124.888861,36.569458 124.888861,37.5 C124.888861,38.430542 124.141249,39.1875 123.222196,39.1875 Z" id="" fill="#FFFFFF" fill-rule="nonzero"></path>
        <path d="M67.9201432,31.8730287 L75.8666503,24.306618 C76.0444499,24.1372876 76.0444499,23.8627741 75.8666503,23.6934085 L67.9201062,16.1269978 C67.7422695,15.9576674 67.4539659,15.9576674 67.2761293,16.1269978 L66.5248353,16.8423913 C66.3470357,17.0116863 66.3470357,17.2861998 66.5248353,17.4555655 L72.4114539,23.0605807 L59.4553566,23.0605807 C59.2038877,23.0605807 59,23.2547161 59,23.4941568 L59,24.5058343 C59,24.745275 59.2038877,24.9394104 59.4553566,24.9394104 L72.4114539,24.9394104 L66.5248353,30.544461 C66.3470357,30.7137913 66.3470357,30.9883048 66.5248353,31.1576352 L67.2761293,31.8730287 C67.4539659,32.0423238 67.7422695,32.0423238 67.9201432,31.8730287 Z" id="" fill="#FFFFFF" fill-rule="nonzero"></path>
    </g>
</svg>
